<svg width="299" height="299" viewBox="0 0 299 299" fill="none" xmlns="http://www.w3.org/2000/svg">
<path d="M283.51 83.2258H120.374L91.647 111.952L166.664 187.082H115.706L39.4638 112.007L106.369 45.1078H256.472C229.324 17.2878 191.44 0 149.5 0C66.9305 0 0 66.9294 0 149.498C0 173.302 5.59 195.791 15.4896 215.769H178.626L207.408 186.988L132.326 111.913H132.336H183.284H183.294L259.536 186.988L233.47 213.054L192.631 253.892H42.5278C69.6757 281.707 107.56 299 149.5 299C232.07 299 299 232.066 299 149.502C299 125.693 293.41 103.204 283.51 83.2258Z" fill="#3AA365"/>
</svg>
